<svg width="193" height="33" viewBox="0 0 193 33" fill="none" xmlns="http://www.w3.org/2000/svg">
<path d="M3.33998 0.340016C2.18798 0.340016 1.39598 0.556015 0.963979 1.02402C0.531979 1.49202 0.315979 2.35602 0.315979 3.65202V6.96402C0.315979 8.08002 0.531979 8.87201 0.963979 9.34002C1.39598 9.80802 2.18798 10.024 3.33998 10.024H10.252V29.68C10.288 30.652 10.54 31.336 11.008 31.804C11.476 32.272 12.268 32.488 13.384 32.452H17.2C18.316 32.416 19.108 32.2 19.54 31.768C20.008 31.336 20.224 30.652 20.188 29.68V10.024H26.524C27.64 10.024 28.432 9.80802 28.9 9.34002C29.332 8.87201 29.548 8.08002 29.548 6.96402V3.36402C29.548 2.28401 29.332 1.49202 28.9 1.02402C28.432 0.556015 27.64 0.340016 26.524 0.340016H3.33998Z" fill="#8E7DFA"/>
<path d="M40.5499 3.43601C40.5139 2.32002 40.2619 1.52802 39.7939 1.09601C39.3259 0.628014 38.4259 0.412015 37.1299 0.412015H33.9619C32.8819 0.448014 32.0899 0.664016 31.6579 1.09601C31.1899 1.56401 30.9739 2.32002 30.9739 3.43601V29.716C31.0099 30.688 31.2619 31.372 31.7299 31.84C32.2339 32.308 33.0259 32.524 34.1059 32.488H37.5619C38.6779 32.452 39.4339 32.236 39.9019 31.804C40.3699 31.372 40.5859 30.688 40.5499 29.716V19.672C40.5499 18.34 40.8019 17.368 41.2699 16.792C41.7019 16.18 42.4219 15.892 43.3939 15.892H43.7539C44.7259 15.892 45.4819 16.18 45.9499 16.792C46.3819 17.368 46.5979 18.34 46.5979 19.672V29.716C46.5619 30.688 46.7779 31.372 47.2459 31.804C47.7139 32.236 48.4699 32.452 49.5859 32.488H53.0419C54.1219 32.524 54.9139 32.308 55.4179 31.84C55.8859 31.372 56.1379 30.688 56.1739 29.716V19.06C56.1739 14.74 55.1299 11.752 53.0779 10.024C50.9899 8.33202 48.0379 7.43201 44.2219 7.39601H42.9619C42.0979 7.39601 41.3059 7.43201 40.5499 7.54002V3.43601Z" fill="#8E7DFA"/>
<path d="M73.1744 16.72H67.1984C67.3064 15.856 67.5224 15.244 67.8464 14.812C68.3144 14.236 69.0344 13.912 70.0064 13.912H70.3664C71.3384 13.912 72.0584 14.236 72.5264 14.812C72.8504 15.244 73.1024 15.856 73.1744 16.72ZM79.7984 26.008H70.0064C69.0344 26.008 68.3144 25.72 67.8464 25.144C67.5224 24.712 67.3064 24.1 67.1984 23.236H79.8344C80.9144 23.236 81.6704 23.02 82.1384 22.552C82.5704 22.12 82.7864 21.22 82.7864 19.888V19.06C82.7864 14.74 81.7424 11.752 79.6904 10.024C77.6024 8.33202 74.6504 7.43201 70.8344 7.39601H69.5744C65.7224 7.43201 62.7704 8.33202 60.6824 10.024C58.6304 11.752 57.6224 14.74 57.6224 19.06V20.752C57.6224 25.072 58.6304 28.06 60.6824 29.788C62.7704 31.48 65.7224 32.38 69.5744 32.416H79.7984C80.8784 32.416 81.6344 32.2 82.1024 31.732C82.5344 31.264 82.7504 30.436 82.7504 29.176V28.996C82.6784 27.916 82.4624 27.124 82.0304 26.656C81.6344 26.224 80.8784 26.008 79.7984 26.008Z" fill="#8E7DFA"/>
<path d="M112.243 29.356V20.716H128.407C129.523 20.716 130.315 20.464 130.783 19.996C131.215 19.528 131.431 18.772 131.431 17.656V15.28C131.431 14.164 131.215 13.372 130.783 12.904C130.315 12.436 129.523 12.22 128.407 12.22H112.243V8.90801H128.407C129.523 8.90801 130.315 8.65602 130.783 8.18802C131.215 7.72002 131.431 6.92801 131.431 5.84802V3.43601C131.431 2.35602 131.215 1.56401 130.783 1.09601C130.315 0.628014 129.523 0.376015 128.407 0.376015H105.223C104.071 0.376015 103.279 0.628014 102.847 1.09601C102.415 1.56401 102.199 2.35602 102.199 3.43601V29.356C102.199 30.472 102.415 31.264 102.883 31.696C103.315 32.128 104.107 32.344 105.223 32.38H108.823C110.119 32.416 111.019 32.2 111.487 31.732C111.955 31.264 112.207 30.472 112.243 29.356Z" fill="#8E7DFA"/>
<path d="M141.101 9.73602V8.98002C141.101 7.57602 141.821 6.85602 143.225 6.85602H151.649C153.053 6.85602 153.773 7.57602 153.773 8.98002V12.22C153.773 13.624 153.053 14.308 151.649 14.308H139.841C135.161 14.308 132.821 16.648 132.821 21.364V30.544C132.821 31.408 133.289 31.876 134.225 31.876H160.649C161.585 31.876 162.053 31.408 162.053 30.544V26.584C162.053 25.72 161.585 25.288 160.649 25.288H141.821C141.353 25.288 141.101 25.036 141.101 24.568V22.984C141.101 21.58 141.821 20.896 143.225 20.896H155.033C159.677 20.896 162.017 18.556 162.053 13.84V7.32402C162.017 2.64402 159.677 0.304016 155.033 0.304016H139.841C135.161 0.304016 132.821 2.64402 132.821 7.32402V9.73602C132.821 10.6 133.289 11.032 134.225 11.032H139.697C140.633 11.032 141.101 10.6 141.101 9.73602Z" fill="#8E7DFA"/>
<path d="M166.465 32.38H189.649C190.765 32.38 191.557 32.164 192.025 31.696C192.457 31.228 192.673 30.436 192.673 29.32V26.944C192.673 25.828 192.457 25.036 192.025 24.568C191.557 24.1 190.765 23.884 189.649 23.884H173.485V20.716H189.649C190.765 20.716 191.557 20.464 192.025 19.996C192.457 19.528 192.673 18.772 192.673 17.656V15.28C192.673 14.164 192.457 13.372 192.025 12.904C191.557 12.436 190.765 12.22 189.649 12.22H173.485V8.90801H189.649C190.765 8.90801 191.557 8.65602 192.025 8.18802C192.457 7.72002 192.673 6.92801 192.673 5.84802V3.43601C192.673 2.35602 192.457 1.56401 192.025 1.09601C191.557 0.628014 190.765 0.376015 189.649 0.376015H166.465C165.313 0.376015 164.521 0.628014 164.089 1.09601C163.657 1.56401 163.441 2.35602 163.441 3.43601V29.356C163.441 30.472 163.657 31.264 164.125 31.696C164.557 32.128 165.349 32.344 166.465 32.38Z" fill="#8E7DFA"/>
</svg>
